#N canvas 821 395 664 471 10;
#X obj 233 15 adc~;
#X obj 132 83 delwrite~ delayline 500;
#X obj 101 171 delread~ delayline 150;
#X obj 134 231 dac~;
#X obj 289 84 delwrite~ delayline 500;
#X obj 133 135 *~;
#X obj 285 169 delread~ delayline 150;
#X obj 329 128 *~;
#X obj 7 13 r feedback-min=0-max=1-def=0.6;
#X connect 0 0 1 0;
#X connect 0 1 4 0;
#X connect 2 0 3 0;
#X connect 2 0 5 0;
#X connect 5 0 1 0;
#X connect 6 0 7 0;
#X connect 6 0 3 1;
#X connect 7 0 4 0;
#X connect 8 0 5 1;
#X connect 8 0 7 1;
