#N canvas 688 211 802 640 12;
#X obj 259 168 *~;
#X floatatom 259 83 0 0 0 0 - - -;
#X obj 169 188 +~;
#N canvas 0 50 450 300 (subpatch) 0;
#X array fm-output 441 float 0;
#X coords 0 1.02 440 -1.02 200 130 1;
#X restore 551 192 graph;
#X floatatom 311 98 0 0 0 0 - - -;
#X text 166 75 carrier;
#X text 165 93 frequency;
#X text 241 57 frequency;
#X text 245 42 modulation;
#X text 33 8 FREQUENCY MODULATION ("FM") USING TWO OSCILLATORS;
#X obj 161 232 osc~;
#X text 52 214 "carrier";
#X text 34 232 oscillator -->;
#X text 47 149 add modulator;
#X text 46 167 to carrier;
#X text 44 186 frequency -->;
#X text 320 150 index;
#X text 322 131 modulation;
#X obj 259 108 osc~;
#X text 585 319 --- 0.01 seconds ----;
#X text 53 443 To get the FM sound \, set all three of carrier frequency
\, modulation frequency \, and modulation index in the hundreds. Note
that you get a timbral change as you sweep modulation index \, because
this changes the amplitudes of the components of the output sound but
not their frequencies.;
#X text 489 613 updated for Pd version 0.37;
#X text 54 332 This patch shows the classical FM synthesis technique
developed by John Chowning. It's nothing but an oscillator with vibrato
controlled by another "modulation" oscillator. First \, to understand
the patch \, set carrier frequency to 400 or so \, modulation frequency
between 5 and 10 \, and try modulation index values between 0 and 400
\, say. You'll hear a sine wave with vibrato.;
#X text 55 526 The component frequencies are equal to the carrier frequency
\, plus or minus multiples of the modulator frequency. A more complete
discussion of FM occurs in part 5 of this series.;
#X obj 131 68 adc~;
#X obj 156 303 dac~;
#X obj 215 196 +~;
#X obj 250 237 osc~;
#X obj 120 257 *~;
#X obj 268 274 *~;
#X obj 349 37 r mfreq-min=0-max=2000-def=0;
#X obj 372 72 r mindex-min=0-max=2000-def=0;
#X obj 22 29 r cfreq-min=0-max=2000-def=0;
#X connect 0 0 2 1;
#X connect 0 0 26 1;
#X connect 1 0 18 0;
#X connect 2 0 10 0;
#X connect 4 0 0 1;
#X connect 10 0 28 1;
#X connect 18 0 0 0;
#X connect 24 0 28 0;
#X connect 24 1 29 0;
#X connect 26 0 27 0;
#X connect 27 0 29 1;
#X connect 28 0 25 0;
#X connect 29 0 25 1;
#X connect 30 0 1 0;
#X connect 31 0 4 0;
#X connect 32 0 2 0;
