#N canvas 294 82 532 500 10;
#X obj 21 379 vcf~;
#X obj 20 -18 adc~;
#X obj 15 414 dac~;
#X obj 87 21 +~ 1;
#X obj 88 42 *~ 0.5;
#X obj 87 0 osc~ 2;
#X floatatom 140 169 6 0 0 0 - - -;
#X floatatom 141 111 6 0 0 0 - - -;
#X obj 141 92 -;
#X obj 141 70 bang;
#X obj 41 176 +~ 200;
#X obj 40 94 *~ 1500;
#X text 138 17 <-- LFO (Low-Frequency Oscillator;
#X text 322 75 <-- Maximum of the freq. range;
#X text 276 147 <-- Minimum of the freq. range;
#X text 149 300 <-- "Q";
#X text 60 380 <-- Voltage-Controlled band-pass filter;
#X text 273 427 Pierre Massat \, GuitarExtended \, 2012.s;
#X obj 303 -13 r maxfreqrange-min=700-max=6000-def=1000;
#X obj 288 104 r minfreqrange-min=0-max=700-def=0;
#X obj 286 -37 r lfo-min=0.5-max=4-def=1;
#X obj 252 241 r q-min=0-max=20-def=5.3;
#X connect 0 0 2 1;
#X connect 0 0 2 0;
#X connect 1 0 0 0;
#X connect 3 0 4 0;
#X connect 4 0 11 0;
#X connect 5 0 3 0;
#X connect 8 0 7 0;
#X connect 8 0 11 1;
#X connect 9 0 8 0;
#X connect 10 0 0 1;
#X connect 11 0 10 0;
#X connect 18 0 8 0;
#X connect 19 0 9 0;
#X connect 19 0 10 1;
#X connect 19 0 6 0;
#X connect 20 0 5 0;
#X connect 21 0 0 2;
